# xmcd
#
# Track frame offsets: 
#        150
#        21676
#        36562
#        52678
#        69152
#        85227
#        108143
#        126169
#        142461
#        159223
#        174937
#        190168
#
# Disc length: 3054 seconds
#
# Revision: 0
# Processed by: cddbd v1.5.2PL0 Copyright (c) Steve Scherf et al.
# Submitted via: ExactAudioCopy v0.99pb4
#
DISCID=9f0bec0c
DTITLE=Brandon Rhyder - Every Night
DYEAR=2008
DGENRE=Country
TTITLE0=Have I Waited Too Long
TTITLE1=Fingers To The Bone
TTITLE2=Let's Don't Go Down That Road
TTITLE3=Again
TTITLE4=She Couldn't Lie Anymore
TTITLE5=Old Red Roor
TTITLE6=This Ain't It
TTITLE7=Happy Ever After
TTITLE8=When You Wake Up
TTITLE9=It's What I Do
TTITLE10=Every Night
TTITLE11=Cowboy's Work
EXTD=
EXTT0=
EXTT1=
EXTT2=
EXTT3=
EXTT4=
EXTT5=
EXTT6=
EXTT7=
EXTT8=
EXTT9=
EXTT10=
EXTT11=
PLAYORDER=
